<?xml version="1.0" encoding="iso-8859-1"?>
<!-- Generator: Adobe Illustrator 19.0.0, SVG Export Plug-In . SVG Version: 6.00 Build 0)  -->
<svg version="1.1" id="Capa_1" xmlns="http://www.w3.org/2000/svg" xmlns:xlink="http://www.w3.org/1999/xlink" x="0px" y="0px"
	 viewBox="0 0 400 400" style="enable-background:new 0 0 400 400;" xml:space="preserve">
<path style="fill:#FDC75B;" d="M389.9,127.4V338c0,22.1-17.9,40-40,40H50.1c-22.1,0-40-17.9-40-40V127.4H389.9z"/>
<g>
	<path style="fill:#ED664C;" d="M389.9,62v65.5H10.1V62c0-22.1,17.9-40,40-40h299.8C372,22,389.9,39.9,389.9,62z M192,74.7
		c0-10.2-8.3-18.5-18.5-18.5S155,64.5,155,74.7s8.3,18.5,18.5,18.5C183.8,93.2,192,84.9,192,74.7z M133.6,74.7
		c0-10.2-8.3-18.5-18.5-18.5s-18.5,8.3-18.5,18.5s8.3,18.5,18.5,18.5S133.6,84.9,133.6,74.7z M75.1,74.7c0-10.2-8.3-18.5-18.5-18.5
		s-18.5,8.3-18.5,18.5s8.3,18.5,18.5,18.5S75.1,84.9,75.1,74.7z"/>
	<path style="fill:#ED664C;" d="M173.5,56.2c10.2,0,18.5,8.3,18.5,18.5s-8.3,18.5-18.5,18.5S155,84.9,155,74.7
		S163.3,56.2,173.5,56.2z"/>
	<path style="fill:#ED664C;" d="M115.1,56.2c10.2,0,18.5,8.3,18.5,18.5s-8.3,18.5-18.5,18.5s-18.5-8.3-18.5-18.5
		S104.8,56.2,115.1,56.2z"/>
	<path style="fill:#ED664C;" d="M56.6,56.2c10.2,0,18.5,8.3,18.5,18.5s-8.3,18.5-18.5,18.5s-18.5-8.3-18.5-18.5
		C38.1,64.5,46.4,56.2,56.6,56.2z"/>
</g>
<path d="M400,62c0-27.6-22.4-50-50-50H50C22.4,12,0,34.4,0,62v276c0,27.6,22.4,50,50,50h300c27.6,0,50-22.4,50-50V62z M50.1,32
	h299.8c16.5,0,30.1,13.4,30.1,30v55H20V62C20,45.4,33.6,32,50.1,32z M349.9,368H50.1C33.6,368,20,354.6,20,338V137h360v201
	C380,354.6,366.4,368,349.9,368z"/>
<path d="M115.1,103.2c15.7,0,28.5-12.8,28.5-28.5s-12.8-28.5-28.5-28.5S86.6,59,86.6,74.7C86.5,90.4,99.3,103.2,115.1,103.2z
	 M115.1,66.2c4.7,0,8.5,3.8,8.5,8.5s-3.8,8.5-8.5,8.5s-8.5-3.8-8.5-8.5C106.5,70,110.4,66.2,115.1,66.2z"/>
<path d="M173.5,103.2c15.7,0,28.5-12.8,28.5-28.5s-12.8-28.5-28.5-28.5S145,59,145,74.7S157.8,103.2,173.5,103.2z M173.5,66.2
	c4.7,0,8.5,3.8,8.5,8.5s-3.8,8.5-8.5,8.5s-8.5-3.8-8.5-8.5S168.8,66.2,173.5,66.2z"/>
<path d="M56.6,103.2c15.7,0,28.5-12.8,28.5-28.5S72.3,46.2,56.6,46.2S28.1,59,28.1,74.7C28.1,90.4,40.9,103.2,56.6,103.2z
	 M56.6,66.2c4.7,0,8.5,3.8,8.5,8.5s-3.8,8.5-8.5,8.5s-8.5-3.8-8.5-8.5S51.9,66.2,56.6,66.2z"/>
<path d="M161,200c-3.5-4.3-9.7-5-14.1-1.6l-54,43.2c-2.4,1.9-3.8,4.8-3.8,7.8s1.4,5.9,3.8,7.8l54,43.2c1.8,1.5,4,2.2,6.2,2.2
	c2.9,0,5.8-1.3,7.8-3.8c3.5-4.3,2.8-10.6-1.6-14.1l-44.2-35.4l44.2-35.4C163.8,210.6,164.5,204.4,161,200z"/>
<path d="M307,241.7l-54-43.2c-4.3-3.4-10.6-2.8-14.1,1.6c-3.5,4.3-2.8,10.6,1.6,14.1l44.2,35.4L240.5,285c-4.3,3.5-5,9.7-1.6,14.1
	c2,2.5,4.9,3.8,7.8,3.8c2.2,0,4.4-0.7,6.2-2.2l54-43.2c2.4-1.9,3.8-4.8,3.8-7.8S309.3,243.5,307,241.7z"/>
<path d="M219.4,165.3c-5.4-1.4-10.8,1.9-12.2,7.2l-38.1,150c-1.4,5.4,1.9,10.8,7.2,12.2c0.8,0.2,1.7,0.3,2.5,0.3
	c4.5,0,8.5-3,9.7-7.5l38.1-150C228,172.1,224.7,166.7,219.4,165.3z"/>
<g>
</g>
<g>
</g>
<g>
</g>
<g>
</g>
<g>
</g>
<g>
</g>
<g>
</g>
<g>
</g>
<g>
</g>
<g>
</g>
<g>
</g>
<g>
</g>
<g>
</g>
<g>
</g>
<g>
</g>
</svg>
